<mxfile host="app.diagrams.net" agent="Mozilla/5.0 (Windows NT 10.0; Win64; x64) AppleWebKit/537.36 (KHTML, like Gecko) Chrome/132.0.0.0 Safari/537.36" version="26.0.15">
  <diagram id="R2lEEEUBdFMjLlhIrx00" name="Page-1">
    <mxGraphModel dx="6100" dy="3270" grid="1" gridSize="10" guides="1" tooltips="1" connect="1" arrows="1" fold="1" page="1" pageScale="1" pageWidth="850" pageHeight="1100" math="0" shadow="0" extFonts="Permanent Marker^https://fonts.googleapis.com/css?family=Permanent+Marker">
      <root>
        <mxCell id="0" />
        <mxCell id="1" parent="0" />
        <mxCell id="JWIrp3TfvC-NvSnAgTIm-1" value="ATM_MACHINE" style="rounded=0;whiteSpace=wrap;html=1;fontStyle=1;fontSize=19;" vertex="1" parent="1">
          <mxGeometry x="-70" y="-30" width="200" height="30" as="geometry" />
        </mxCell>
        <mxCell id="JWIrp3TfvC-NvSnAgTIm-2" value="CUSTOMER_ACCOUNT" style="rounded=0;whiteSpace=wrap;html=1;fontStyle=1;fontSize=19;" vertex="1" parent="1">
          <mxGeometry x="1195" y="170" width="260" height="30" as="geometry" />
        </mxCell>
        <mxCell id="JWIrp3TfvC-NvSnAgTIm-3" value="ATM_OPERATOR" style="rounded=0;whiteSpace=wrap;html=1;fontStyle=1;fontSize=19;" vertex="1" parent="1">
          <mxGeometry x="-640" y="-330" width="200" height="30" as="geometry" />
        </mxCell>
        <mxCell id="JWIrp3TfvC-NvSnAgTIm-4" value="ATM_MAINTENANCE" style="rounded=0;whiteSpace=wrap;html=1;fontStyle=1;fontSize=19;" vertex="1" parent="1">
          <mxGeometry x="20" y="390" width="200" height="30" as="geometry" />
        </mxCell>
        <mxCell id="JWIrp3TfvC-NvSnAgTIm-5" value="CUSTOMER" style="rounded=0;whiteSpace=wrap;html=1;fontStyle=1;fontSize=19;" vertex="1" parent="1">
          <mxGeometry x="1400" y="-125" width="200" height="30" as="geometry" />
        </mxCell>
        <mxCell id="JWIrp3TfvC-NvSnAgTIm-6" value="BANK_BRANCH" style="rounded=0;whiteSpace=wrap;html=1;fontStyle=1;fontSize=19;" vertex="1" parent="1">
          <mxGeometry x="430" y="-490" width="200" height="30" as="geometry" />
        </mxCell>
        <mxCell id="JWIrp3TfvC-NvSnAgTIm-7" value="ATM_TECHNICIAN" style="rounded=0;whiteSpace=wrap;html=1;fontStyle=1;fontSize=19;" vertex="1" parent="1">
          <mxGeometry x="-900" y="450" width="200" height="30" as="geometry" />
        </mxCell>
        <mxCell id="JWIrp3TfvC-NvSnAgTIm-8" value="CARD" style="rounded=0;whiteSpace=wrap;html=1;fontStyle=1;fontSize=19;" vertex="1" parent="1">
          <mxGeometry x="1630" y="100" width="110" height="30" as="geometry" />
        </mxCell>
        <mxCell id="JWIrp3TfvC-NvSnAgTIm-9" value="TRANSACTION" style="rounded=0;whiteSpace=wrap;html=1;fontStyle=1;fontSize=19;" vertex="1" parent="1">
          <mxGeometry x="1640" y="460" width="150" height="30" as="geometry" />
        </mxCell>
        <mxCell id="JWIrp3TfvC-NvSnAgTIm-10" value="ATM_ID" style="ellipse;whiteSpace=wrap;html=1;fontSize=19;fontStyle=0" vertex="1" parent="1">
          <mxGeometry x="-190" y="-110" width="160" height="50" as="geometry" />
        </mxCell>
        <mxCell id="JWIrp3TfvC-NvSnAgTIm-11" value="" style="endArrow=none;html=1;rounded=0;" edge="1" parent="1">
          <mxGeometry width="50" height="50" relative="1" as="geometry">
            <mxPoint x="-168" y="-70" as="sourcePoint" />
            <mxPoint x="-50" y="-70" as="targetPoint" />
          </mxGeometry>
        </mxCell>
        <mxCell id="JWIrp3TfvC-NvSnAgTIm-15" value="STAND_ALONE" style="ellipse;whiteSpace=wrap;html=1;fontSize=19;fontStyle=0" vertex="1" parent="1">
          <mxGeometry x="-90" y="-230" width="160" height="50" as="geometry" />
        </mxCell>
        <mxCell id="JWIrp3TfvC-NvSnAgTIm-16" value="BRANCH" style="ellipse;whiteSpace=wrap;html=1;fontSize=19;fontStyle=0" vertex="1" parent="1">
          <mxGeometry x="100" y="-220" width="130" height="50" as="geometry" />
        </mxCell>
        <mxCell id="JWIrp3TfvC-NvSnAgTIm-17" value="" style="endArrow=none;html=1;rounded=0;exitX=0.225;exitY=0.083;exitDx=0;exitDy=0;exitPerimeter=0;" edge="1" parent="1">
          <mxGeometry width="50" height="50" relative="1" as="geometry">
            <mxPoint x="8.25" y="-135.01999999999998" as="sourcePoint" />
            <mxPoint x="-5" y="-180" as="targetPoint" />
          </mxGeometry>
        </mxCell>
        <mxCell id="JWIrp3TfvC-NvSnAgTIm-18" value="" style="endArrow=none;html=1;rounded=0;exitX=0.72;exitY=0.069;exitDx=0;exitDy=0;exitPerimeter=0;" edge="1" parent="1">
          <mxGeometry width="50" height="50" relative="1" as="geometry">
            <mxPoint x="92.40000000000009" y="-135.8599999999999" as="sourcePoint" />
            <mxPoint x="165" y="-170" as="targetPoint" />
          </mxGeometry>
        </mxCell>
        <mxCell id="JWIrp3TfvC-NvSnAgTIm-19" value="" style="endArrow=none;html=1;rounded=0;" edge="1" parent="1" source="JWIrp3TfvC-NvSnAgTIm-1">
          <mxGeometry width="50" height="50" relative="1" as="geometry">
            <mxPoint x="-140" y="-10" as="sourcePoint" />
            <mxPoint x="-90" y="-60" as="targetPoint" />
          </mxGeometry>
        </mxCell>
        <mxCell id="JWIrp3TfvC-NvSnAgTIm-20" value="" style="endArrow=none;html=1;rounded=0;exitX=0.5;exitY=0;exitDx=0;exitDy=0;" edge="1" parent="1" source="JWIrp3TfvC-NvSnAgTIm-1">
          <mxGeometry width="50" height="50" relative="1" as="geometry">
            <mxPoint x="110" y="-50" as="sourcePoint" />
            <mxPoint x="30" y="-80" as="targetPoint" />
          </mxGeometry>
        </mxCell>
        <mxCell id="JWIrp3TfvC-NvSnAgTIm-21" value="BRANCH_ID (FK)" style="ellipse;whiteSpace=wrap;html=1;fontSize=19;fontStyle=0" vertex="1" parent="1">
          <mxGeometry x="-260" y="-30" width="170" height="50" as="geometry" />
        </mxCell>
        <mxCell id="JWIrp3TfvC-NvSnAgTIm-22" value="MODEL" style="ellipse;whiteSpace=wrap;html=1;fontSize=19;fontStyle=0" vertex="1" parent="1">
          <mxGeometry x="-150" y="30" width="130" height="50" as="geometry" />
        </mxCell>
        <mxCell id="JWIrp3TfvC-NvSnAgTIm-23" value="INSTALLATION_DATE" style="ellipse;whiteSpace=wrap;html=1;fontSize=19;fontStyle=0" vertex="1" parent="1">
          <mxGeometry x="100" y="-90" width="220" height="50" as="geometry" />
        </mxCell>
        <mxCell id="JWIrp3TfvC-NvSnAgTIm-24" value="" style="endArrow=none;html=1;rounded=0;exitX=0.85;exitY=0;exitDx=0;exitDy=0;exitPerimeter=0;" edge="1" parent="1" source="JWIrp3TfvC-NvSnAgTIm-1">
          <mxGeometry width="50" height="50" relative="1" as="geometry">
            <mxPoint x="70" as="sourcePoint" />
            <mxPoint x="120" y="-50" as="targetPoint" />
          </mxGeometry>
        </mxCell>
        <mxCell id="JWIrp3TfvC-NvSnAgTIm-25" value="" style="endArrow=none;html=1;rounded=0;entryX=0;entryY=0.5;entryDx=0;entryDy=0;exitX=1;exitY=0.5;exitDx=0;exitDy=0;" edge="1" parent="1" source="JWIrp3TfvC-NvSnAgTIm-21" target="JWIrp3TfvC-NvSnAgTIm-1">
          <mxGeometry width="50" height="50" relative="1" as="geometry">
            <mxPoint x="-90" as="sourcePoint" />
            <mxPoint x="-40" y="-50" as="targetPoint" />
          </mxGeometry>
        </mxCell>
        <mxCell id="JWIrp3TfvC-NvSnAgTIm-26" value="" style="endArrow=none;html=1;rounded=0;entryX=0.05;entryY=1;entryDx=0;entryDy=0;entryPerimeter=0;" edge="1" parent="1" target="JWIrp3TfvC-NvSnAgTIm-1">
          <mxGeometry width="50" height="50" relative="1" as="geometry">
            <mxPoint x="-80" y="30" as="sourcePoint" />
            <mxPoint x="-30" y="-20" as="targetPoint" />
          </mxGeometry>
        </mxCell>
        <mxCell id="JWIrp3TfvC-NvSnAgTIm-28" value="TECHNICIAN_ID" style="ellipse;whiteSpace=wrap;html=1;fontSize=19;fontStyle=0" vertex="1" parent="1">
          <mxGeometry x="-1000" y="330" width="160" height="50" as="geometry" />
        </mxCell>
        <mxCell id="JWIrp3TfvC-NvSnAgTIm-29" value="" style="endArrow=none;html=1;rounded=0;" edge="1" parent="1">
          <mxGeometry width="50" height="50" relative="1" as="geometry">
            <mxPoint x="-978" y="370" as="sourcePoint" />
            <mxPoint x="-860" y="370" as="targetPoint" />
          </mxGeometry>
        </mxCell>
        <mxCell id="JWIrp3TfvC-NvSnAgTIm-30" value="CONTACT_INFO" style="ellipse;whiteSpace=wrap;html=1;fontSize=19;fontStyle=0" vertex="1" parent="1">
          <mxGeometry x="-700" y="360" width="160" height="50" as="geometry" />
        </mxCell>
        <mxCell id="JWIrp3TfvC-NvSnAgTIm-31" value="NAME" style="ellipse;whiteSpace=wrap;html=1;fontSize=19;fontStyle=0" vertex="1" parent="1">
          <mxGeometry x="-830" y="340" width="120" height="50" as="geometry" />
        </mxCell>
        <mxCell id="JWIrp3TfvC-NvSnAgTIm-32" value="LOCATION" style="ellipse;whiteSpace=wrap;html=1;fontSize=19;fontStyle=0" vertex="1" parent="1">
          <mxGeometry x="-40" y="-140" width="170" height="60" as="geometry" />
        </mxCell>
        <mxCell id="JWIrp3TfvC-NvSnAgTIm-33" value="PHONE #" style="ellipse;whiteSpace=wrap;html=1;fontSize=19;fontStyle=0" vertex="1" parent="1">
          <mxGeometry x="-600" y="260" width="110" height="50" as="geometry" />
        </mxCell>
        <mxCell id="JWIrp3TfvC-NvSnAgTIm-34" value="EMAIL" style="ellipse;whiteSpace=wrap;html=1;fontSize=19;fontStyle=0" vertex="1" parent="1">
          <mxGeometry x="-700" y="280" width="90" height="50" as="geometry" />
        </mxCell>
        <mxCell id="JWIrp3TfvC-NvSnAgTIm-35" value="SERVICE_AREAS" style="ellipse;shape=doubleEllipse;margin=3;whiteSpace=wrap;html=1;align=center;fontStyle=1;fontSize=17;" vertex="1" parent="1">
          <mxGeometry x="-660" y="440" width="170" height="60" as="geometry" />
        </mxCell>
        <mxCell id="JWIrp3TfvC-NvSnAgTIm-36" value="" style="endArrow=none;html=1;rounded=0;exitX=0.14;exitY=-0.033;exitDx=0;exitDy=0;exitPerimeter=0;" edge="1" parent="1" source="JWIrp3TfvC-NvSnAgTIm-7">
          <mxGeometry width="50" height="50" relative="1" as="geometry">
            <mxPoint x="-960" y="430" as="sourcePoint" />
            <mxPoint x="-910" y="380" as="targetPoint" />
          </mxGeometry>
        </mxCell>
        <mxCell id="JWIrp3TfvC-NvSnAgTIm-37" value="" style="endArrow=none;html=1;rounded=0;exitX=0.45;exitY=0;exitDx=0;exitDy=0;exitPerimeter=0;" edge="1" parent="1" source="JWIrp3TfvC-NvSnAgTIm-7">
          <mxGeometry width="50" height="50" relative="1" as="geometry">
            <mxPoint x="-830" y="440" as="sourcePoint" />
            <mxPoint x="-780" y="390" as="targetPoint" />
          </mxGeometry>
        </mxCell>
        <mxCell id="JWIrp3TfvC-NvSnAgTIm-38" value="" style="endArrow=none;html=1;rounded=0;exitX=0.835;exitY=0;exitDx=0;exitDy=0;exitPerimeter=0;" edge="1" parent="1" source="JWIrp3TfvC-NvSnAgTIm-7">
          <mxGeometry width="50" height="50" relative="1" as="geometry">
            <mxPoint x="-730" y="450" as="sourcePoint" />
            <mxPoint x="-680" y="400" as="targetPoint" />
          </mxGeometry>
        </mxCell>
        <mxCell id="JWIrp3TfvC-NvSnAgTIm-39" value="" style="endArrow=none;html=1;rounded=0;exitX=0.35;exitY=0.02;exitDx=0;exitDy=0;exitPerimeter=0;" edge="1" parent="1" source="JWIrp3TfvC-NvSnAgTIm-30">
          <mxGeometry width="50" height="50" relative="1" as="geometry">
            <mxPoint x="-710" y="380" as="sourcePoint" />
            <mxPoint x="-660" y="330" as="targetPoint" />
          </mxGeometry>
        </mxCell>
        <mxCell id="JWIrp3TfvC-NvSnAgTIm-40" value="" style="endArrow=none;html=1;rounded=0;exitX=0.563;exitY=-0.02;exitDx=0;exitDy=0;exitPerimeter=0;entryX=0.273;entryY=0.94;entryDx=0;entryDy=0;entryPerimeter=0;" edge="1" parent="1" source="JWIrp3TfvC-NvSnAgTIm-30" target="JWIrp3TfvC-NvSnAgTIm-33">
          <mxGeometry width="50" height="50" relative="1" as="geometry">
            <mxPoint x="-600" y="390" as="sourcePoint" />
            <mxPoint x="-550" y="340" as="targetPoint" />
          </mxGeometry>
        </mxCell>
        <mxCell id="JWIrp3TfvC-NvSnAgTIm-41" value="" style="endArrow=none;html=1;rounded=0;entryX=0.035;entryY=0.35;entryDx=0;entryDy=0;entryPerimeter=0;" edge="1" parent="1" target="JWIrp3TfvC-NvSnAgTIm-35">
          <mxGeometry width="50" height="50" relative="1" as="geometry">
            <mxPoint x="-700" y="470" as="sourcePoint" />
            <mxPoint x="-650" y="420" as="targetPoint" />
          </mxGeometry>
        </mxCell>
        <mxCell id="JWIrp3TfvC-NvSnAgTIm-43" value="MAINTENANCE_ID" style="ellipse;whiteSpace=wrap;html=1;fontSize=19;fontStyle=0" vertex="1" parent="1">
          <mxGeometry x="-120" y="260" width="190" height="50" as="geometry" />
        </mxCell>
        <mxCell id="JWIrp3TfvC-NvSnAgTIm-44" value="" style="endArrow=none;html=1;rounded=0;exitX=0;exitY=1;exitDx=0;exitDy=0;" edge="1" parent="1" source="JWIrp3TfvC-NvSnAgTIm-43">
          <mxGeometry width="50" height="50" relative="1" as="geometry">
            <mxPoint x="-68" y="300" as="sourcePoint" />
            <mxPoint x="50" y="300" as="targetPoint" />
          </mxGeometry>
        </mxCell>
        <mxCell id="JWIrp3TfvC-NvSnAgTIm-45" value="" style="endArrow=none;html=1;rounded=0;" edge="1" parent="1">
          <mxGeometry width="50" height="50" relative="1" as="geometry">
            <mxPoint x="40" y="390" as="sourcePoint" />
            <mxPoint x="-10" y="310" as="targetPoint" />
          </mxGeometry>
        </mxCell>
        <mxCell id="JWIrp3TfvC-NvSnAgTIm-47" value="SERVICE_DATE_TIME" style="ellipse;whiteSpace=wrap;html=1;fontSize=19;fontStyle=0" vertex="1" parent="1">
          <mxGeometry x="-260" y="410" width="230" height="50" as="geometry" />
        </mxCell>
        <mxCell id="JWIrp3TfvC-NvSnAgTIm-48" value="TECHNICIAN_ID (FK)" style="ellipse;whiteSpace=wrap;html=1;fontSize=19;fontStyle=0" vertex="1" parent="1">
          <mxGeometry x="-240" y="340" width="220" height="50" as="geometry" />
        </mxCell>
        <mxCell id="JWIrp3TfvC-NvSnAgTIm-49" value="ATM_ID (FK)" style="ellipse;whiteSpace=wrap;html=1;fontSize=19;fontStyle=0" vertex="1" parent="1">
          <mxGeometry x="70" y="290" width="120" height="50" as="geometry" />
        </mxCell>
        <mxCell id="JWIrp3TfvC-NvSnAgTIm-50" value="ISSUE_DESCRIPTION" style="ellipse;whiteSpace=wrap;html=1;fontSize=19;fontStyle=0" vertex="1" parent="1">
          <mxGeometry x="-140" y="480" width="230" height="50" as="geometry" />
        </mxCell>
        <mxCell id="JWIrp3TfvC-NvSnAgTIm-51" value="PART_REPLACED" style="ellipse;whiteSpace=wrap;html=1;fontSize=19;fontStyle=0" vertex="1" parent="1">
          <mxGeometry x="110" y="470" width="210" height="50" as="geometry" />
        </mxCell>
        <mxCell id="JWIrp3TfvC-NvSnAgTIm-52" value="" style="endArrow=none;html=1;rounded=0;" edge="1" parent="1">
          <mxGeometry width="50" height="50" relative="1" as="geometry">
            <mxPoint x="80" y="390" as="sourcePoint" />
            <mxPoint x="130" y="340" as="targetPoint" />
          </mxGeometry>
        </mxCell>
        <mxCell id="JWIrp3TfvC-NvSnAgTIm-53" value="" style="endArrow=none;html=1;rounded=0;entryX=0;entryY=0.75;entryDx=0;entryDy=0;exitX=1;exitY=0.5;exitDx=0;exitDy=0;" edge="1" parent="1" source="JWIrp3TfvC-NvSnAgTIm-47" target="JWIrp3TfvC-NvSnAgTIm-4">
          <mxGeometry width="50" height="50" relative="1" as="geometry">
            <mxPoint x="-30" y="430" as="sourcePoint" />
            <mxPoint x="20" y="380" as="targetPoint" />
          </mxGeometry>
        </mxCell>
        <mxCell id="JWIrp3TfvC-NvSnAgTIm-54" value="" style="endArrow=none;html=1;rounded=0;entryX=0.104;entryY=1;entryDx=0;entryDy=0;entryPerimeter=0;" edge="1" parent="1" target="JWIrp3TfvC-NvSnAgTIm-4">
          <mxGeometry width="50" height="50" relative="1" as="geometry">
            <mxPoint x="-10" y="480" as="sourcePoint" />
            <mxPoint x="40" y="430" as="targetPoint" />
          </mxGeometry>
        </mxCell>
        <mxCell id="JWIrp3TfvC-NvSnAgTIm-55" value="" style="endArrow=none;html=1;rounded=0;entryX=0.297;entryY=1;entryDx=0;entryDy=0;entryPerimeter=0;exitX=0.254;exitY=0.071;exitDx=0;exitDy=0;exitPerimeter=0;" edge="1" parent="1" source="JWIrp3TfvC-NvSnAgTIm-51" target="JWIrp3TfvC-NvSnAgTIm-4">
          <mxGeometry width="50" height="50" relative="1" as="geometry">
            <mxPoint x="170" y="470" as="sourcePoint" />
            <mxPoint x="210" y="420" as="targetPoint" />
          </mxGeometry>
        </mxCell>
        <mxCell id="JWIrp3TfvC-NvSnAgTIm-56" value="" style="endArrow=none;html=1;rounded=0;entryX=0;entryY=0.5;entryDx=0;entryDy=0;exitX=1;exitY=0.5;exitDx=0;exitDy=0;" edge="1" parent="1" source="JWIrp3TfvC-NvSnAgTIm-48" target="JWIrp3TfvC-NvSnAgTIm-4">
          <mxGeometry width="50" height="50" relative="1" as="geometry">
            <mxPoint x="-20" y="370" as="sourcePoint" />
            <mxPoint x="30" y="320" as="targetPoint" />
          </mxGeometry>
        </mxCell>
        <mxCell id="JWIrp3TfvC-NvSnAgTIm-57" value="OPERATOR_ID" style="ellipse;whiteSpace=wrap;html=1;fontSize=19;fontStyle=0" vertex="1" parent="1">
          <mxGeometry x="-480" y="-430" width="160" height="50" as="geometry" />
        </mxCell>
        <mxCell id="JWIrp3TfvC-NvSnAgTIm-58" value="" style="endArrow=none;html=1;rounded=0;" edge="1" parent="1">
          <mxGeometry width="50" height="50" relative="1" as="geometry">
            <mxPoint x="-459" y="-390" as="sourcePoint" />
            <mxPoint x="-341" y="-390" as="targetPoint" />
          </mxGeometry>
        </mxCell>
        <mxCell id="JWIrp3TfvC-NvSnAgTIm-60" value="ATM_ID (FK)" style="ellipse;whiteSpace=wrap;html=1;fontSize=19;fontStyle=0" vertex="1" parent="1">
          <mxGeometry x="-480" y="-270" width="140" height="50" as="geometry" />
        </mxCell>
        <mxCell id="JWIrp3TfvC-NvSnAgTIm-61" value="NAME" style="ellipse;whiteSpace=wrap;html=1;fontSize=19;fontStyle=0" vertex="1" parent="1">
          <mxGeometry x="-420" y="-350" width="110" height="50" as="geometry" />
        </mxCell>
        <mxCell id="JWIrp3TfvC-NvSnAgTIm-62" value="L_NAME" style="ellipse;whiteSpace=wrap;html=1;fontSize=19;fontStyle=0" vertex="1" parent="1">
          <mxGeometry x="-305" y="-300" width="110" height="50" as="geometry" />
        </mxCell>
        <mxCell id="JWIrp3TfvC-NvSnAgTIm-63" value="F_NAME" style="ellipse;whiteSpace=wrap;html=1;fontSize=19;fontStyle=0" vertex="1" parent="1">
          <mxGeometry x="-310" y="-390" width="110" height="50" as="geometry" />
        </mxCell>
        <mxCell id="JWIrp3TfvC-NvSnAgTIm-64" value="" style="endArrow=none;html=1;rounded=0;" edge="1" parent="1" target="JWIrp3TfvC-NvSnAgTIm-62">
          <mxGeometry width="50" height="50" relative="1" as="geometry">
            <mxPoint x="-310" y="-320" as="sourcePoint" />
            <mxPoint x="-260" y="-370" as="targetPoint" />
          </mxGeometry>
        </mxCell>
        <mxCell id="JWIrp3TfvC-NvSnAgTIm-65" value="" style="endArrow=none;html=1;rounded=0;entryX=1;entryY=0;entryDx=0;entryDy=0;" edge="1" parent="1" target="JWIrp3TfvC-NvSnAgTIm-61">
          <mxGeometry width="50" height="50" relative="1" as="geometry">
            <mxPoint x="-305" y="-354" as="sourcePoint" />
            <mxPoint x="-274" y="-330" as="targetPoint" />
          </mxGeometry>
        </mxCell>
        <mxCell id="JWIrp3TfvC-NvSnAgTIm-66" value="" style="endArrow=none;html=1;rounded=0;entryX=0.351;entryY=0.977;entryDx=0;entryDy=0;entryPerimeter=0;" edge="1" parent="1" target="JWIrp3TfvC-NvSnAgTIm-57">
          <mxGeometry width="50" height="50" relative="1" as="geometry">
            <mxPoint x="-500" y="-330" as="sourcePoint" />
            <mxPoint x="-460" y="-390" as="targetPoint" />
          </mxGeometry>
        </mxCell>
        <mxCell id="JWIrp3TfvC-NvSnAgTIm-67" value="" style="endArrow=none;html=1;rounded=0;entryX=0;entryY=0.6;entryDx=0;entryDy=0;entryPerimeter=0;" edge="1" parent="1" target="JWIrp3TfvC-NvSnAgTIm-61">
          <mxGeometry width="50" height="50" relative="1" as="geometry">
            <mxPoint x="-440" y="-310" as="sourcePoint" />
            <mxPoint x="-390" y="-360" as="targetPoint" />
          </mxGeometry>
        </mxCell>
        <mxCell id="JWIrp3TfvC-NvSnAgTIm-68" value="" style="endArrow=none;html=1;rounded=0;exitX=0.33;exitY=0.043;exitDx=0;exitDy=0;exitPerimeter=0;" edge="1" parent="1" source="JWIrp3TfvC-NvSnAgTIm-60">
          <mxGeometry width="50" height="50" relative="1" as="geometry">
            <mxPoint x="-510" y="-250" as="sourcePoint" />
            <mxPoint x="-460" y="-300" as="targetPoint" />
          </mxGeometry>
        </mxCell>
        <mxCell id="JWIrp3TfvC-NvSnAgTIm-69" value="C_ID" style="ellipse;whiteSpace=wrap;html=1;fontSize=19;fontStyle=0" vertex="1" parent="1">
          <mxGeometry x="1310" y="-232.5" width="95" height="50" as="geometry" />
        </mxCell>
        <mxCell id="JWIrp3TfvC-NvSnAgTIm-70" value="" style="endArrow=none;html=1;rounded=0;" edge="1" parent="1">
          <mxGeometry width="50" height="50" relative="1" as="geometry">
            <mxPoint x="1330" y="-193" as="sourcePoint" />
            <mxPoint x="1384" y="-192.98000000000002" as="targetPoint" />
          </mxGeometry>
        </mxCell>
        <mxCell id="JWIrp3TfvC-NvSnAgTIm-71" value="CUSTOMER_ID" style="ellipse;whiteSpace=wrap;html=1;fontSize=19;fontStyle=0" vertex="1" parent="1">
          <mxGeometry x="1540" y="-277.5" width="160" height="50" as="geometry" />
        </mxCell>
        <mxCell id="JWIrp3TfvC-NvSnAgTIm-72" value="NAME" style="ellipse;whiteSpace=wrap;html=1;fontSize=19;fontStyle=0" vertex="1" parent="1">
          <mxGeometry x="1400" y="-300" width="100" height="50" as="geometry" />
        </mxCell>
        <mxCell id="JWIrp3TfvC-NvSnAgTIm-73" value="" style="endArrow=none;html=1;rounded=0;" edge="1" parent="1">
          <mxGeometry width="50" height="50" relative="1" as="geometry">
            <mxPoint x="620" y="-115" as="sourcePoint" />
            <mxPoint x="820" y="-130" as="targetPoint" />
          </mxGeometry>
        </mxCell>
        <mxCell id="JWIrp3TfvC-NvSnAgTIm-74" value="HOUSE #" style="ellipse;whiteSpace=wrap;html=1;" vertex="1" parent="1">
          <mxGeometry x="840" y="-70" width="90" height="35" as="geometry" />
        </mxCell>
        <mxCell id="JWIrp3TfvC-NvSnAgTIm-75" value="STREET #" style="ellipse;whiteSpace=wrap;html=1;" vertex="1" parent="1">
          <mxGeometry x="530" y="-130" width="90" height="40" as="geometry" />
        </mxCell>
        <mxCell id="JWIrp3TfvC-NvSnAgTIm-76" value="POSTAL CODE" style="ellipse;whiteSpace=wrap;html=1;" vertex="1" parent="1">
          <mxGeometry x="510" y="-195" width="110" height="40" as="geometry" />
        </mxCell>
        <mxCell id="JWIrp3TfvC-NvSnAgTIm-77" value="STATE/PROVINCE" style="ellipse;whiteSpace=wrap;html=1;" vertex="1" parent="1">
          <mxGeometry x="570" y="-260" width="140" height="40" as="geometry" />
        </mxCell>
        <mxCell id="JWIrp3TfvC-NvSnAgTIm-78" value="CITY" style="ellipse;whiteSpace=wrap;html=1;" vertex="1" parent="1">
          <mxGeometry x="740" y="-60" width="90" height="40" as="geometry" />
        </mxCell>
        <mxCell id="JWIrp3TfvC-NvSnAgTIm-79" value="COUNTRY" style="ellipse;whiteSpace=wrap;html=1;" vertex="1" parent="1">
          <mxGeometry x="580" y="-80" width="90" height="40" as="geometry" />
        </mxCell>
        <mxCell id="JWIrp3TfvC-NvSnAgTIm-80" value="" style="endArrow=none;html=1;rounded=0;" edge="1" parent="1">
          <mxGeometry width="50" height="50" relative="1" as="geometry">
            <mxPoint x="822.8896213334074" y="-149.01180159996784" as="sourcePoint" />
            <mxPoint x="660" y="-220" as="targetPoint" />
          </mxGeometry>
        </mxCell>
        <mxCell id="JWIrp3TfvC-NvSnAgTIm-81" value="" style="endArrow=none;html=1;rounded=0;exitX=0;exitY=0.5;exitDx=0;exitDy=0;entryX=1;entryY=0.5;entryDx=0;entryDy=0;" edge="1" parent="1" target="JWIrp3TfvC-NvSnAgTIm-76">
          <mxGeometry width="50" height="50" relative="1" as="geometry">
            <mxPoint x="810" y="-135" as="sourcePoint" />
            <mxPoint x="630" y="-235" as="targetPoint" />
          </mxGeometry>
        </mxCell>
        <mxCell id="JWIrp3TfvC-NvSnAgTIm-82" value="" style="endArrow=none;html=1;rounded=0;exitX=0;exitY=1;exitDx=0;exitDy=0;entryX=1;entryY=0.5;entryDx=0;entryDy=0;" edge="1" parent="1" target="JWIrp3TfvC-NvSnAgTIm-79">
          <mxGeometry width="50" height="50" relative="1" as="geometry">
            <mxPoint x="823.2846925427357" y="-120.81157297964455" as="sourcePoint" />
            <mxPoint x="650" y="-130" as="targetPoint" />
          </mxGeometry>
        </mxCell>
        <mxCell id="JWIrp3TfvC-NvSnAgTIm-83" value="" style="endArrow=none;html=1;rounded=0;exitX=0.687;exitY=0.065;exitDx=0;exitDy=0;exitPerimeter=0;entryX=0.375;entryY=0.991;entryDx=0;entryDy=0;entryPerimeter=0;" edge="1" parent="1" source="JWIrp3TfvC-NvSnAgTIm-74" target="JWIrp3TfvC-NvSnAgTIm-86">
          <mxGeometry width="50" height="50" relative="1" as="geometry">
            <mxPoint x="810" y="-65" as="sourcePoint" />
            <mxPoint x="860" y="-115" as="targetPoint" />
          </mxGeometry>
        </mxCell>
        <mxCell id="JWIrp3TfvC-NvSnAgTIm-84" value="" style="endArrow=none;html=1;rounded=0;exitX=0;exitY=0.5;exitDx=0;exitDy=0;" edge="1" parent="1">
          <mxGeometry width="50" height="50" relative="1" as="geometry">
            <mxPoint x="930" y="-135" as="sourcePoint" />
            <mxPoint x="900" y="-130" as="targetPoint" />
          </mxGeometry>
        </mxCell>
        <mxCell id="JWIrp3TfvC-NvSnAgTIm-85" value="" style="endArrow=none;html=1;rounded=0;entryX=0.25;entryY=1;entryDx=0;entryDy=0;" edge="1" parent="1" target="JWIrp3TfvC-NvSnAgTIm-86">
          <mxGeometry width="50" height="50" relative="1" as="geometry">
            <mxPoint x="790" y="-60" as="sourcePoint" />
            <mxPoint x="838.7220583823919" y="-116.35435778346755" as="targetPoint" />
          </mxGeometry>
        </mxCell>
        <mxCell id="JWIrp3TfvC-NvSnAgTIm-86" value="CUS_ADDRESS" style="rounded=0;whiteSpace=wrap;html=1;fontStyle=1;fontSize=15;" vertex="1" parent="1">
          <mxGeometry x="810" y="-150" width="120" height="30" as="geometry" />
        </mxCell>
        <mxCell id="JWIrp3TfvC-NvSnAgTIm-87" value="C_ID (FK)" style="ellipse;whiteSpace=wrap;html=1;" vertex="1" parent="1">
          <mxGeometry x="720" y="-270" width="100" height="35" as="geometry" />
        </mxCell>
        <mxCell id="JWIrp3TfvC-NvSnAgTIm-88" value="CUS_ADDRESS_ID" style="ellipse;whiteSpace=wrap;html=1;" vertex="1" parent="1">
          <mxGeometry x="840" y="-272.5" width="120" height="40" as="geometry" />
        </mxCell>
        <mxCell id="JWIrp3TfvC-NvSnAgTIm-89" value="" style="endArrow=none;html=1;rounded=0;exitX=0.5;exitY=0;exitDx=0;exitDy=0;" edge="1" parent="1" source="JWIrp3TfvC-NvSnAgTIm-86">
          <mxGeometry width="50" height="50" relative="1" as="geometry">
            <mxPoint x="845" y="-182.5" as="sourcePoint" />
            <mxPoint x="895" y="-232.5" as="targetPoint" />
          </mxGeometry>
        </mxCell>
        <mxCell id="JWIrp3TfvC-NvSnAgTIm-90" value="" style="endArrow=none;html=1;rounded=0;exitX=0.25;exitY=0;exitDx=0;exitDy=0;" edge="1" parent="1" source="JWIrp3TfvC-NvSnAgTIm-86">
          <mxGeometry width="50" height="50" relative="1" as="geometry">
            <mxPoint x="740" y="-185" as="sourcePoint" />
            <mxPoint x="790" y="-235" as="targetPoint" />
          </mxGeometry>
        </mxCell>
        <mxCell id="JWIrp3TfvC-NvSnAgTIm-91" value="" style="endArrow=none;html=1;rounded=0;" edge="1" parent="1">
          <mxGeometry width="50" height="50" relative="1" as="geometry">
            <mxPoint x="852.5" y="-240.90999999999997" as="sourcePoint" />
            <mxPoint x="947.5" y="-240" as="targetPoint" />
          </mxGeometry>
        </mxCell>
        <mxCell id="JWIrp3TfvC-NvSnAgTIm-92" value="CONTACT_INFO" style="ellipse;whiteSpace=wrap;html=1;fontSize=19;fontStyle=0" vertex="1" parent="1">
          <mxGeometry x="1680" y="-140" width="160" height="50" as="geometry" />
        </mxCell>
        <mxCell id="JWIrp3TfvC-NvSnAgTIm-93" value="PHONE #" style="ellipse;whiteSpace=wrap;html=1;fontSize=19;fontStyle=0" vertex="1" parent="1">
          <mxGeometry x="1780" y="-240" width="110" height="50" as="geometry" />
        </mxCell>
        <mxCell id="JWIrp3TfvC-NvSnAgTIm-94" value="EMAIL" style="ellipse;whiteSpace=wrap;html=1;fontSize=19;fontStyle=0" vertex="1" parent="1">
          <mxGeometry x="1680" y="-220" width="90" height="50" as="geometry" />
        </mxCell>
        <mxCell id="JWIrp3TfvC-NvSnAgTIm-95" value="" style="endArrow=none;html=1;rounded=0;exitX=0.35;exitY=0.02;exitDx=0;exitDy=0;exitPerimeter=0;" edge="1" source="JWIrp3TfvC-NvSnAgTIm-92" parent="1">
          <mxGeometry width="50" height="50" relative="1" as="geometry">
            <mxPoint x="1670" y="-120" as="sourcePoint" />
            <mxPoint x="1720" y="-170" as="targetPoint" />
          </mxGeometry>
        </mxCell>
        <mxCell id="JWIrp3TfvC-NvSnAgTIm-96" value="" style="endArrow=none;html=1;rounded=0;exitX=0.563;exitY=-0.02;exitDx=0;exitDy=0;exitPerimeter=0;entryX=0.273;entryY=0.94;entryDx=0;entryDy=0;entryPerimeter=0;" edge="1" source="JWIrp3TfvC-NvSnAgTIm-92" target="JWIrp3TfvC-NvSnAgTIm-93" parent="1">
          <mxGeometry width="50" height="50" relative="1" as="geometry">
            <mxPoint x="1780" y="-110" as="sourcePoint" />
            <mxPoint x="1830" y="-160" as="targetPoint" />
          </mxGeometry>
        </mxCell>
        <mxCell id="JWIrp3TfvC-NvSnAgTIm-97" value="HAS" style="rhombus;whiteSpace=wrap;html=1;fontSize=17;" vertex="1" parent="1">
          <mxGeometry x="1130" y="-150" width="80" height="80" as="geometry" />
        </mxCell>
        <mxCell id="JWIrp3TfvC-NvSnAgTIm-98" value="1" style="endArrow=none;html=1;rounded=0;entryX=0;entryY=0.5;entryDx=0;entryDy=0;exitX=1;exitY=0.5;exitDx=0;exitDy=0;shape=link;" edge="1" parent="1" source="JWIrp3TfvC-NvSnAgTIm-97" target="JWIrp3TfvC-NvSnAgTIm-5">
          <mxGeometry width="50" height="50" relative="1" as="geometry">
            <mxPoint x="1210" y="-110" as="sourcePoint" />
            <mxPoint x="1260" y="-160" as="targetPoint" />
          </mxGeometry>
        </mxCell>
        <mxCell id="JWIrp3TfvC-NvSnAgTIm-99" value="1" style="endArrow=none;html=1;rounded=0;exitX=1;exitY=0.333;exitDx=0;exitDy=0;entryX=0;entryY=0.5;entryDx=0;entryDy=0;exitPerimeter=0;" edge="1" parent="1" source="JWIrp3TfvC-NvSnAgTIm-86" target="JWIrp3TfvC-NvSnAgTIm-97">
          <mxGeometry width="50" height="50" relative="1" as="geometry">
            <mxPoint x="1080" y="-60" as="sourcePoint" />
            <mxPoint x="1100" y="-110" as="targetPoint" />
            <Array as="points">
              <mxPoint x="1090" y="-140" />
              <mxPoint x="1090" y="-110" />
            </Array>
          </mxGeometry>
        </mxCell>
        <mxCell id="JWIrp3TfvC-NvSnAgTIm-100" value="" style="endArrow=none;html=1;rounded=0;entryX=0.717;entryY=0.963;entryDx=0;entryDy=0;entryPerimeter=0;exitX=0.25;exitY=0;exitDx=0;exitDy=0;" edge="1" parent="1" source="JWIrp3TfvC-NvSnAgTIm-5" target="JWIrp3TfvC-NvSnAgTIm-69">
          <mxGeometry width="50" height="50" relative="1" as="geometry">
            <mxPoint x="1440" y="-130" as="sourcePoint" />
            <mxPoint x="1380" y="-190" as="targetPoint" />
          </mxGeometry>
        </mxCell>
        <mxCell id="JWIrp3TfvC-NvSnAgTIm-101" value="" style="endArrow=none;html=1;rounded=0;exitX=0.386;exitY=0.04;exitDx=0;exitDy=0;exitPerimeter=0;" edge="1" parent="1" source="JWIrp3TfvC-NvSnAgTIm-5">
          <mxGeometry width="50" height="50" relative="1" as="geometry">
            <mxPoint x="1470" y="-130" as="sourcePoint" />
            <mxPoint x="1460" y="-250" as="targetPoint" />
          </mxGeometry>
        </mxCell>
        <mxCell id="JWIrp3TfvC-NvSnAgTIm-102" value="" style="endArrow=none;html=1;rounded=0;exitX=0.59;exitY=0.013;exitDx=0;exitDy=0;exitPerimeter=0;entryX=0.258;entryY=0.946;entryDx=0;entryDy=0;entryPerimeter=0;" edge="1" parent="1" source="JWIrp3TfvC-NvSnAgTIm-5" target="JWIrp3TfvC-NvSnAgTIm-71">
          <mxGeometry width="50" height="50" relative="1" as="geometry">
            <mxPoint x="1540" y="-177.5" as="sourcePoint" />
            <mxPoint x="1590" y="-227.5" as="targetPoint" />
          </mxGeometry>
        </mxCell>
        <mxCell id="JWIrp3TfvC-NvSnAgTIm-103" value="" style="endArrow=none;html=1;rounded=0;exitX=1;exitY=0.5;exitDx=0;exitDy=0;entryX=0;entryY=0.5;entryDx=0;entryDy=0;entryPerimeter=0;" edge="1" parent="1" source="JWIrp3TfvC-NvSnAgTIm-5" target="JWIrp3TfvC-NvSnAgTIm-92">
          <mxGeometry width="50" height="50" relative="1" as="geometry">
            <mxPoint x="1620" y="-130" as="sourcePoint" />
            <mxPoint x="1670" y="-180" as="targetPoint" />
          </mxGeometry>
        </mxCell>
        <mxCell id="JWIrp3TfvC-NvSnAgTIm-104" value="CUS_ADDRESS_ID (FK)" style="ellipse;whiteSpace=wrap;html=1;fontSize=15;" vertex="1" parent="1">
          <mxGeometry x="1515" y="-50" width="205" height="50" as="geometry" />
        </mxCell>
        <mxCell id="JWIrp3TfvC-NvSnAgTIm-105" value="" style="endArrow=none;html=1;rounded=0;entryX=0.75;entryY=1;entryDx=0;entryDy=0;" edge="1" parent="1" target="JWIrp3TfvC-NvSnAgTIm-5">
          <mxGeometry width="50" height="50" relative="1" as="geometry">
            <mxPoint x="1600" y="-50" as="sourcePoint" />
            <mxPoint x="1650" y="-100" as="targetPoint" />
          </mxGeometry>
        </mxCell>
        <mxCell id="JWIrp3TfvC-NvSnAgTIm-108" value="BRANCH_ID" style="ellipse;whiteSpace=wrap;html=1;fontSize=19;fontStyle=0" vertex="1" parent="1">
          <mxGeometry x="670" y="-530" width="160" height="50" as="geometry" />
        </mxCell>
        <mxCell id="JWIrp3TfvC-NvSnAgTIm-109" value="" style="endArrow=none;html=1;rounded=0;" edge="1" parent="1">
          <mxGeometry width="50" height="50" relative="1" as="geometry">
            <mxPoint x="691" y="-490.48" as="sourcePoint" />
            <mxPoint x="809" y="-490.48" as="targetPoint" />
          </mxGeometry>
        </mxCell>
        <mxCell id="JWIrp3TfvC-NvSnAgTIm-112" value="CONTACT_INFO" style="ellipse;whiteSpace=wrap;html=1;fontSize=19;fontStyle=0" vertex="1" parent="1">
          <mxGeometry x="540" y="-570" width="160" height="50" as="geometry" />
        </mxCell>
        <mxCell id="JWIrp3TfvC-NvSnAgTIm-113" value="PHONE #" style="ellipse;whiteSpace=wrap;html=1;fontSize=19;fontStyle=0" vertex="1" parent="1">
          <mxGeometry x="640" y="-670" width="110" height="50" as="geometry" />
        </mxCell>
        <mxCell id="JWIrp3TfvC-NvSnAgTIm-114" value="EMAIL" style="ellipse;whiteSpace=wrap;html=1;fontSize=19;fontStyle=0" vertex="1" parent="1">
          <mxGeometry x="540" y="-650" width="90" height="50" as="geometry" />
        </mxCell>
        <mxCell id="JWIrp3TfvC-NvSnAgTIm-115" value="" style="endArrow=none;html=1;rounded=0;exitX=0.35;exitY=0.02;exitDx=0;exitDy=0;exitPerimeter=0;" edge="1" source="JWIrp3TfvC-NvSnAgTIm-112" parent="1">
          <mxGeometry width="50" height="50" relative="1" as="geometry">
            <mxPoint x="530" y="-550" as="sourcePoint" />
            <mxPoint x="580" y="-600" as="targetPoint" />
          </mxGeometry>
        </mxCell>
        <mxCell id="JWIrp3TfvC-NvSnAgTIm-116" value="" style="endArrow=none;html=1;rounded=0;exitX=0.563;exitY=-0.02;exitDx=0;exitDy=0;exitPerimeter=0;entryX=0.273;entryY=0.94;entryDx=0;entryDy=0;entryPerimeter=0;" edge="1" source="JWIrp3TfvC-NvSnAgTIm-112" target="JWIrp3TfvC-NvSnAgTIm-113" parent="1">
          <mxGeometry width="50" height="50" relative="1" as="geometry">
            <mxPoint x="640" y="-540" as="sourcePoint" />
            <mxPoint x="690" y="-590" as="targetPoint" />
          </mxGeometry>
        </mxCell>
        <mxCell id="JWIrp3TfvC-NvSnAgTIm-117" value="" style="endArrow=none;html=1;rounded=0;exitX=0.871;exitY=0.044;exitDx=0;exitDy=0;exitPerimeter=0;" edge="1" parent="1" source="JWIrp3TfvC-NvSnAgTIm-6">
          <mxGeometry width="50" height="50" relative="1" as="geometry">
            <mxPoint x="560" y="-470" as="sourcePoint" />
            <mxPoint x="610" y="-520" as="targetPoint" />
          </mxGeometry>
        </mxCell>
        <mxCell id="JWIrp3TfvC-NvSnAgTIm-118" value="" style="endArrow=none;html=1;rounded=0;exitX=1;exitY=0.5;exitDx=0;exitDy=0;entryX=0.048;entryY=0.71;entryDx=0;entryDy=0;entryPerimeter=0;" edge="1" parent="1" source="JWIrp3TfvC-NvSnAgTIm-6" target="JWIrp3TfvC-NvSnAgTIm-108">
          <mxGeometry width="50" height="50" relative="1" as="geometry">
            <mxPoint x="680" y="-430" as="sourcePoint" />
            <mxPoint x="730" y="-480" as="targetPoint" />
          </mxGeometry>
        </mxCell>
        <mxCell id="JWIrp3TfvC-NvSnAgTIm-119" value="" style="endArrow=none;html=1;rounded=0;" edge="1" parent="1">
          <mxGeometry width="50" height="50" relative="1" as="geometry">
            <mxPoint x="-20" y="-455" as="sourcePoint" />
            <mxPoint x="180" y="-470" as="targetPoint" />
          </mxGeometry>
        </mxCell>
        <mxCell id="JWIrp3TfvC-NvSnAgTIm-121" value="STREET #" style="ellipse;whiteSpace=wrap;html=1;" vertex="1" parent="1">
          <mxGeometry x="-110" y="-470" width="90" height="40" as="geometry" />
        </mxCell>
        <mxCell id="JWIrp3TfvC-NvSnAgTIm-122" value="POSTAL CODE" style="ellipse;whiteSpace=wrap;html=1;" vertex="1" parent="1">
          <mxGeometry x="-130" y="-540" width="110" height="40" as="geometry" />
        </mxCell>
        <mxCell id="JWIrp3TfvC-NvSnAgTIm-123" value="STATE/PROVINCE" style="ellipse;whiteSpace=wrap;html=1;" vertex="1" parent="1">
          <mxGeometry x="-70" y="-600" width="140" height="40" as="geometry" />
        </mxCell>
        <mxCell id="JWIrp3TfvC-NvSnAgTIm-124" value="CITY" style="ellipse;whiteSpace=wrap;html=1;" vertex="1" parent="1">
          <mxGeometry x="100" y="-400" width="90" height="40" as="geometry" />
        </mxCell>
        <mxCell id="JWIrp3TfvC-NvSnAgTIm-125" value="COUNTRY" style="ellipse;whiteSpace=wrap;html=1;" vertex="1" parent="1">
          <mxGeometry x="-60" y="-420" width="90" height="40" as="geometry" />
        </mxCell>
        <mxCell id="JWIrp3TfvC-NvSnAgTIm-126" value="" style="endArrow=none;html=1;rounded=0;" edge="1" parent="1">
          <mxGeometry width="50" height="50" relative="1" as="geometry">
            <mxPoint x="182.88962133340738" y="-489.01180159996784" as="sourcePoint" />
            <mxPoint x="20" y="-560" as="targetPoint" />
          </mxGeometry>
        </mxCell>
        <mxCell id="JWIrp3TfvC-NvSnAgTIm-127" value="" style="endArrow=none;html=1;rounded=0;exitX=0;exitY=0.5;exitDx=0;exitDy=0;entryX=1;entryY=0.5;entryDx=0;entryDy=0;" edge="1" parent="1">
          <mxGeometry width="50" height="50" relative="1" as="geometry">
            <mxPoint x="170" y="-475" as="sourcePoint" />
            <mxPoint x="-20" y="-515" as="targetPoint" />
          </mxGeometry>
        </mxCell>
        <mxCell id="JWIrp3TfvC-NvSnAgTIm-128" value="" style="endArrow=none;html=1;rounded=0;exitX=0;exitY=1;exitDx=0;exitDy=0;entryX=1;entryY=0.5;entryDx=0;entryDy=0;" edge="1" target="JWIrp3TfvC-NvSnAgTIm-125" parent="1">
          <mxGeometry width="50" height="50" relative="1" as="geometry">
            <mxPoint x="183.28469254273568" y="-460.81157297964455" as="sourcePoint" />
            <mxPoint x="10" y="-470" as="targetPoint" />
          </mxGeometry>
        </mxCell>
        <mxCell id="JWIrp3TfvC-NvSnAgTIm-130" value="" style="endArrow=none;html=1;rounded=0;exitX=0;exitY=0.5;exitDx=0;exitDy=0;" edge="1" parent="1">
          <mxGeometry width="50" height="50" relative="1" as="geometry">
            <mxPoint x="290" y="-475" as="sourcePoint" />
            <mxPoint x="260" y="-470" as="targetPoint" />
          </mxGeometry>
        </mxCell>
        <mxCell id="JWIrp3TfvC-NvSnAgTIm-131" value="" style="endArrow=none;html=1;rounded=0;entryX=0.25;entryY=1;entryDx=0;entryDy=0;" edge="1" target="JWIrp3TfvC-NvSnAgTIm-132" parent="1">
          <mxGeometry width="50" height="50" relative="1" as="geometry">
            <mxPoint x="150" y="-400" as="sourcePoint" />
            <mxPoint x="198.72205838239188" y="-456.35435778346755" as="targetPoint" />
          </mxGeometry>
        </mxCell>
        <mxCell id="JWIrp3TfvC-NvSnAgTIm-132" value="BRANCH_ADDRESS" style="rounded=0;whiteSpace=wrap;html=1;fontStyle=1;fontSize=12;" vertex="1" parent="1">
          <mxGeometry x="170" y="-490" width="120" height="30" as="geometry" />
        </mxCell>
        <mxCell id="JWIrp3TfvC-NvSnAgTIm-133" value="BRANCH_ID (FK)" style="ellipse;whiteSpace=wrap;html=1;" vertex="1" parent="1">
          <mxGeometry x="70" y="-610" width="110" height="35" as="geometry" />
        </mxCell>
        <mxCell id="JWIrp3TfvC-NvSnAgTIm-134" value="BANK_BRANCH_ADDRESS_ID" style="ellipse;whiteSpace=wrap;html=1;" vertex="1" parent="1">
          <mxGeometry x="200" y="-612.5" width="210" height="40" as="geometry" />
        </mxCell>
        <mxCell id="JWIrp3TfvC-NvSnAgTIm-135" value="" style="endArrow=none;html=1;rounded=0;exitX=0.5;exitY=0;exitDx=0;exitDy=0;" edge="1" source="JWIrp3TfvC-NvSnAgTIm-132" parent="1">
          <mxGeometry width="50" height="50" relative="1" as="geometry">
            <mxPoint x="205" y="-522.5" as="sourcePoint" />
            <mxPoint x="255" y="-572.5" as="targetPoint" />
          </mxGeometry>
        </mxCell>
        <mxCell id="JWIrp3TfvC-NvSnAgTIm-136" value="" style="endArrow=none;html=1;rounded=0;exitX=0.25;exitY=0;exitDx=0;exitDy=0;" edge="1" source="JWIrp3TfvC-NvSnAgTIm-132" parent="1">
          <mxGeometry width="50" height="50" relative="1" as="geometry">
            <mxPoint x="100" y="-525" as="sourcePoint" />
            <mxPoint x="150" y="-575" as="targetPoint" />
          </mxGeometry>
        </mxCell>
        <mxCell id="JWIrp3TfvC-NvSnAgTIm-137" value="" style="endArrow=none;html=1;rounded=0;" edge="1" parent="1">
          <mxGeometry width="50" height="50" relative="1" as="geometry">
            <mxPoint x="221.71000000000004" y="-581.29" as="sourcePoint" />
            <mxPoint x="390" y="-580" as="targetPoint" />
          </mxGeometry>
        </mxCell>
        <mxCell id="JWIrp3TfvC-NvSnAgTIm-138" value="HAS" style="rhombus;whiteSpace=wrap;html=1;" vertex="1" parent="1">
          <mxGeometry x="330" y="-515" width="80" height="80" as="geometry" />
        </mxCell>
        <mxCell id="JWIrp3TfvC-NvSnAgTIm-139" value="1" style="endArrow=none;html=1;rounded=0;entryX=0;entryY=0.5;entryDx=0;entryDy=0;exitX=1;exitY=0.5;exitDx=0;exitDy=0;" edge="1" parent="1" source="JWIrp3TfvC-NvSnAgTIm-132" target="JWIrp3TfvC-NvSnAgTIm-138">
          <mxGeometry width="50" height="50" relative="1" as="geometry">
            <mxPoint x="290" y="-470" as="sourcePoint" />
            <mxPoint x="340" y="-520" as="targetPoint" />
          </mxGeometry>
        </mxCell>
        <mxCell id="JWIrp3TfvC-NvSnAgTIm-140" value="1" style="endArrow=none;html=1;rounded=0;entryX=0;entryY=0.5;entryDx=0;entryDy=0;exitX=1;exitY=0.5;exitDx=0;exitDy=0;shape=link;" edge="1" parent="1" source="JWIrp3TfvC-NvSnAgTIm-138" target="JWIrp3TfvC-NvSnAgTIm-6">
          <mxGeometry width="50" height="50" relative="1" as="geometry">
            <mxPoint x="410" y="-474" as="sourcePoint" />
            <mxPoint x="440" y="-476.25" as="targetPoint" />
          </mxGeometry>
        </mxCell>
        <mxCell id="JWIrp3TfvC-NvSnAgTIm-141" value="BANK_BRANCH_ADDRESS_ID (FK)" style="ellipse;whiteSpace=wrap;html=1;fontSize=19;fontStyle=0" vertex="1" parent="1">
          <mxGeometry x="580" y="-450" width="350" height="50" as="geometry" />
        </mxCell>
        <mxCell id="JWIrp3TfvC-NvSnAgTIm-142" value="" style="endArrow=none;html=1;rounded=0;" edge="1" parent="1" source="JWIrp3TfvC-NvSnAgTIm-141">
          <mxGeometry width="50" height="50" relative="1" as="geometry">
            <mxPoint x="560" y="-410" as="sourcePoint" />
            <mxPoint x="610" y="-460" as="targetPoint" />
          </mxGeometry>
        </mxCell>
        <mxCell id="JWIrp3TfvC-NvSnAgTIm-143" value="" style="endArrow=none;html=1;rounded=0;" edge="1" parent="1">
          <mxGeometry width="50" height="50" relative="1" as="geometry">
            <mxPoint x="-850" y="55" as="sourcePoint" />
            <mxPoint x="-650" y="40" as="targetPoint" />
          </mxGeometry>
        </mxCell>
        <mxCell id="JWIrp3TfvC-NvSnAgTIm-144" value="STREET #" style="ellipse;whiteSpace=wrap;html=1;" vertex="1" parent="1">
          <mxGeometry x="-940" y="40" width="90" height="40" as="geometry" />
        </mxCell>
        <mxCell id="JWIrp3TfvC-NvSnAgTIm-145" value="POSTAL CODE" style="ellipse;whiteSpace=wrap;html=1;" vertex="1" parent="1">
          <mxGeometry x="-960" y="-25" width="110" height="40" as="geometry" />
        </mxCell>
        <mxCell id="JWIrp3TfvC-NvSnAgTIm-146" value="STATE/PROVINCE" style="ellipse;whiteSpace=wrap;html=1;" vertex="1" parent="1">
          <mxGeometry x="-900" y="-90" width="140" height="40" as="geometry" />
        </mxCell>
        <mxCell id="JWIrp3TfvC-NvSnAgTIm-147" value="CITY" style="ellipse;whiteSpace=wrap;html=1;" vertex="1" parent="1">
          <mxGeometry x="-730" y="110" width="90" height="40" as="geometry" />
        </mxCell>
        <mxCell id="JWIrp3TfvC-NvSnAgTIm-148" value="COUNTRY" style="ellipse;whiteSpace=wrap;html=1;" vertex="1" parent="1">
          <mxGeometry x="-890" y="90" width="90" height="40" as="geometry" />
        </mxCell>
        <mxCell id="JWIrp3TfvC-NvSnAgTIm-149" value="" style="endArrow=none;html=1;rounded=0;" edge="1" parent="1">
          <mxGeometry width="50" height="50" relative="1" as="geometry">
            <mxPoint x="-647" y="21" as="sourcePoint" />
            <mxPoint x="-810" y="-50" as="targetPoint" />
          </mxGeometry>
        </mxCell>
        <mxCell id="JWIrp3TfvC-NvSnAgTIm-150" value="" style="endArrow=none;html=1;rounded=0;exitX=0;exitY=0.5;exitDx=0;exitDy=0;entryX=1;entryY=0.5;entryDx=0;entryDy=0;" edge="1" parent="1">
          <mxGeometry width="50" height="50" relative="1" as="geometry">
            <mxPoint x="-660" y="35" as="sourcePoint" />
            <mxPoint x="-850" y="-5" as="targetPoint" />
          </mxGeometry>
        </mxCell>
        <mxCell id="JWIrp3TfvC-NvSnAgTIm-151" value="" style="endArrow=none;html=1;rounded=0;exitX=0;exitY=1;exitDx=0;exitDy=0;entryX=1;entryY=0.5;entryDx=0;entryDy=0;" edge="1" target="JWIrp3TfvC-NvSnAgTIm-148" parent="1">
          <mxGeometry width="50" height="50" relative="1" as="geometry">
            <mxPoint x="-646.7153074572643" y="49.18842702035545" as="sourcePoint" />
            <mxPoint x="-820" y="40" as="targetPoint" />
          </mxGeometry>
        </mxCell>
        <mxCell id="JWIrp3TfvC-NvSnAgTIm-152" value="" style="endArrow=none;html=1;rounded=0;exitX=0;exitY=0.5;exitDx=0;exitDy=0;" edge="1" parent="1">
          <mxGeometry width="50" height="50" relative="1" as="geometry">
            <mxPoint x="-540" y="35" as="sourcePoint" />
            <mxPoint x="-570" y="40" as="targetPoint" />
          </mxGeometry>
        </mxCell>
        <mxCell id="JWIrp3TfvC-NvSnAgTIm-153" value="" style="endArrow=none;html=1;rounded=0;entryX=0.25;entryY=1;entryDx=0;entryDy=0;" edge="1" target="JWIrp3TfvC-NvSnAgTIm-154" parent="1">
          <mxGeometry width="50" height="50" relative="1" as="geometry">
            <mxPoint x="-680" y="110" as="sourcePoint" />
            <mxPoint x="-631.2779416176081" y="53.64564221653245" as="targetPoint" />
          </mxGeometry>
        </mxCell>
        <mxCell id="JWIrp3TfvC-NvSnAgTIm-154" value="ATM_ADDRESS" style="rounded=0;whiteSpace=wrap;html=1;fontStyle=1;fontSize=15;" vertex="1" parent="1">
          <mxGeometry x="-660" y="20" width="120" height="30" as="geometry" />
        </mxCell>
        <mxCell id="JWIrp3TfvC-NvSnAgTIm-155" value="BRANCH_ID (FK)" style="ellipse;whiteSpace=wrap;html=1;" vertex="1" parent="1">
          <mxGeometry x="-760" y="-100" width="110" height="35" as="geometry" />
        </mxCell>
        <mxCell id="JWIrp3TfvC-NvSnAgTIm-156" value="ATM_MACHINE_ADDRESS_ID" style="ellipse;whiteSpace=wrap;html=1;" vertex="1" parent="1">
          <mxGeometry x="-630" y="-102.5" width="210" height="40" as="geometry" />
        </mxCell>
        <mxCell id="JWIrp3TfvC-NvSnAgTIm-157" value="" style="endArrow=none;html=1;rounded=0;exitX=0.5;exitY=0;exitDx=0;exitDy=0;" edge="1" source="JWIrp3TfvC-NvSnAgTIm-154" parent="1">
          <mxGeometry width="50" height="50" relative="1" as="geometry">
            <mxPoint x="-625" y="-12.5" as="sourcePoint" />
            <mxPoint x="-575" y="-62.5" as="targetPoint" />
          </mxGeometry>
        </mxCell>
        <mxCell id="JWIrp3TfvC-NvSnAgTIm-158" value="" style="endArrow=none;html=1;rounded=0;exitX=0.25;exitY=0;exitDx=0;exitDy=0;" edge="1" source="JWIrp3TfvC-NvSnAgTIm-154" parent="1">
          <mxGeometry width="50" height="50" relative="1" as="geometry">
            <mxPoint x="-730" y="-15" as="sourcePoint" />
            <mxPoint x="-680" y="-65" as="targetPoint" />
          </mxGeometry>
        </mxCell>
        <mxCell id="JWIrp3TfvC-NvSnAgTIm-159" value="" style="endArrow=none;html=1;rounded=0;" edge="1" parent="1">
          <mxGeometry width="50" height="50" relative="1" as="geometry">
            <mxPoint x="-608.29" y="-71.28999999999996" as="sourcePoint" />
            <mxPoint x="-440" y="-70" as="targetPoint" />
          </mxGeometry>
        </mxCell>
        <mxCell id="JWIrp3TfvC-NvSnAgTIm-160" value="HAS" style="rhombus;whiteSpace=wrap;html=1;" vertex="1" parent="1">
          <mxGeometry x="-500" y="-5" width="80" height="80" as="geometry" />
        </mxCell>
        <mxCell id="JWIrp3TfvC-NvSnAgTIm-161" value="1" style="endArrow=none;html=1;rounded=0;entryX=0;entryY=0.5;entryDx=0;entryDy=0;exitX=1;exitY=0.5;exitDx=0;exitDy=0;" edge="1" source="JWIrp3TfvC-NvSnAgTIm-154" target="JWIrp3TfvC-NvSnAgTIm-160" parent="1">
          <mxGeometry width="50" height="50" relative="1" as="geometry">
            <mxPoint x="-540" y="40" as="sourcePoint" />
            <mxPoint x="-490" y="-10" as="targetPoint" />
          </mxGeometry>
        </mxCell>
        <mxCell id="JWIrp3TfvC-NvSnAgTIm-162" value="1" style="endArrow=none;html=1;rounded=0;entryX=0.607;entryY=1.097;entryDx=0;entryDy=0;shape=link;entryPerimeter=0;" edge="1" parent="1" target="JWIrp3TfvC-NvSnAgTIm-1">
          <mxGeometry width="50" height="50" relative="1" as="geometry">
            <mxPoint x="-420" y="35" as="sourcePoint" />
            <mxPoint x="-400" y="35" as="targetPoint" />
            <Array as="points">
              <mxPoint x="-370" y="35" />
              <mxPoint x="-370" y="130" />
              <mxPoint x="50" y="130" />
            </Array>
          </mxGeometry>
        </mxCell>
        <mxCell id="JWIrp3TfvC-NvSnAgTIm-163" value="ATM_ADDRESS_ID (FK)" style="ellipse;whiteSpace=wrap;html=1;fontSize=19;fontStyle=0" vertex="1" parent="1">
          <mxGeometry x="70" y="30" width="250" height="50" as="geometry" />
        </mxCell>
        <mxCell id="JWIrp3TfvC-NvSnAgTIm-164" value="" style="endArrow=none;html=1;rounded=0;exitX=0.313;exitY=0.032;exitDx=0;exitDy=0;exitPerimeter=0;" edge="1" parent="1" source="JWIrp3TfvC-NvSnAgTIm-163">
          <mxGeometry width="50" height="50" relative="1" as="geometry">
            <mxPoint x="60" y="50" as="sourcePoint" />
            <mxPoint x="110" as="targetPoint" />
          </mxGeometry>
        </mxCell>
        <mxCell id="JWIrp3TfvC-NvSnAgTIm-165" value="ACCOUNT #" style="ellipse;whiteSpace=wrap;html=1;fontSize=19;fontStyle=0" vertex="1" parent="1">
          <mxGeometry x="1100" y="60" width="190" height="50" as="geometry" />
        </mxCell>
        <mxCell id="JWIrp3TfvC-NvSnAgTIm-166" value="" style="endArrow=none;html=1;rounded=0;exitX=0;exitY=1;exitDx=0;exitDy=0;" edge="1" source="JWIrp3TfvC-NvSnAgTIm-165" parent="1">
          <mxGeometry width="50" height="50" relative="1" as="geometry">
            <mxPoint x="1152" y="100" as="sourcePoint" />
            <mxPoint x="1270" y="100" as="targetPoint" />
          </mxGeometry>
        </mxCell>
        <mxCell id="JWIrp3TfvC-NvSnAgTIm-167" value="CUSTOMER_ID (FK)" style="ellipse;whiteSpace=wrap;html=1;fontSize=19;fontStyle=0" vertex="1" parent="1">
          <mxGeometry x="1200" y="240" width="190" height="50" as="geometry" />
        </mxCell>
        <mxCell id="JWIrp3TfvC-NvSnAgTIm-168" value="BALANCE" style="ellipse;whiteSpace=wrap;html=1;fontSize=19;fontStyle=0" vertex="1" parent="1">
          <mxGeometry x="1005" y="220" width="190" height="50" as="geometry" />
        </mxCell>
        <mxCell id="JWIrp3TfvC-NvSnAgTIm-169" value="TYPE" style="ellipse;whiteSpace=wrap;html=1;fontSize=19;fontStyle=0" vertex="1" parent="1">
          <mxGeometry x="1050" y="150" width="100" height="50" as="geometry" />
        </mxCell>
        <mxCell id="JWIrp3TfvC-NvSnAgTIm-170" value="CURRENT" style="ellipse;whiteSpace=wrap;html=1;fontSize=19;fontStyle=0" vertex="1" parent="1">
          <mxGeometry x="910" y="160" width="110" height="50" as="geometry" />
        </mxCell>
        <mxCell id="JWIrp3TfvC-NvSnAgTIm-171" value="SAVINGS" style="ellipse;whiteSpace=wrap;html=1;fontSize=19;fontStyle=0" vertex="1" parent="1">
          <mxGeometry x="960" y="90" width="100" height="50" as="geometry" />
        </mxCell>
        <mxCell id="JWIrp3TfvC-NvSnAgTIm-172" value="" style="endArrow=none;html=1;rounded=0;" edge="1" parent="1" target="JWIrp3TfvC-NvSnAgTIm-169">
          <mxGeometry width="50" height="50" relative="1" as="geometry">
            <mxPoint x="1050" y="130" as="sourcePoint" />
            <mxPoint x="1100" y="80" as="targetPoint" />
          </mxGeometry>
        </mxCell>
        <mxCell id="JWIrp3TfvC-NvSnAgTIm-173" value="" style="endArrow=none;html=1;rounded=0;entryX=0;entryY=0.5;entryDx=0;entryDy=0;" edge="1" parent="1" target="JWIrp3TfvC-NvSnAgTIm-169">
          <mxGeometry width="50" height="50" relative="1" as="geometry">
            <mxPoint x="1020" y="180" as="sourcePoint" />
            <mxPoint x="1070" y="130" as="targetPoint" />
          </mxGeometry>
        </mxCell>
        <mxCell id="JWIrp3TfvC-NvSnAgTIm-174" value="" style="endArrow=none;html=1;rounded=0;entryX=0;entryY=0.5;entryDx=0;entryDy=0;" edge="1" parent="1" target="JWIrp3TfvC-NvSnAgTIm-2">
          <mxGeometry width="50" height="50" relative="1" as="geometry">
            <mxPoint x="1130" y="220" as="sourcePoint" />
            <mxPoint x="1180" y="170" as="targetPoint" />
          </mxGeometry>
        </mxCell>
        <mxCell id="JWIrp3TfvC-NvSnAgTIm-175" value="" style="endArrow=none;html=1;rounded=0;entryX=0;entryY=0.25;entryDx=0;entryDy=0;" edge="1" parent="1" target="JWIrp3TfvC-NvSnAgTIm-2">
          <mxGeometry width="50" height="50" relative="1" as="geometry">
            <mxPoint x="1150" y="180" as="sourcePoint" />
            <mxPoint x="1200" y="130" as="targetPoint" />
          </mxGeometry>
        </mxCell>
        <mxCell id="JWIrp3TfvC-NvSnAgTIm-176" value="" style="endArrow=none;html=1;rounded=0;exitX=0.368;exitY=0;exitDx=0;exitDy=0;exitPerimeter=0;" edge="1" parent="1" source="JWIrp3TfvC-NvSnAgTIm-167">
          <mxGeometry width="50" height="50" relative="1" as="geometry">
            <mxPoint x="1260" y="240" as="sourcePoint" />
            <mxPoint x="1290" y="200" as="targetPoint" />
          </mxGeometry>
        </mxCell>
        <mxCell id="JWIrp3TfvC-NvSnAgTIm-177" value="" style="endArrow=none;html=1;rounded=0;exitX=0.111;exitY=0.15;exitDx=0;exitDy=0;exitPerimeter=0;" edge="1" parent="1">
          <mxGeometry width="50" height="50" relative="1" as="geometry">
            <mxPoint x="1220" y="169.99999999999955" as="sourcePoint" />
            <mxPoint x="1241.1399999999999" y="105.5" as="targetPoint" />
          </mxGeometry>
        </mxCell>
        <mxCell id="JWIrp3TfvC-NvSnAgTIm-178" value="CARD #" style="ellipse;whiteSpace=wrap;html=1;fontSize=19;fontStyle=0" vertex="1" parent="1">
          <mxGeometry x="1730" y="150" width="110" height="50" as="geometry" />
        </mxCell>
        <mxCell id="JWIrp3TfvC-NvSnAgTIm-179" value="" style="endArrow=none;html=1;rounded=0;" edge="1" parent="1">
          <mxGeometry width="50" height="50" relative="1" as="geometry">
            <mxPoint x="1748" y="190" as="sourcePoint" />
            <mxPoint x="1822.06" y="190" as="targetPoint" />
          </mxGeometry>
        </mxCell>
        <mxCell id="JWIrp3TfvC-NvSnAgTIm-180" value="CUSTOMER_ID (FK)" style="ellipse;whiteSpace=wrap;html=1;fontSize=19;fontStyle=0" vertex="1" parent="1">
          <mxGeometry x="1540" y="180" width="190" height="50" as="geometry" />
        </mxCell>
        <mxCell id="JWIrp3TfvC-NvSnAgTIm-181" value="EXPIRY DATE" style="ellipse;whiteSpace=wrap;html=1;fontSize=19;fontStyle=0" vertex="1" parent="1">
          <mxGeometry x="1770" y="90" width="140" height="50" as="geometry" />
        </mxCell>
        <mxCell id="JWIrp3TfvC-NvSnAgTIm-182" value="" style="endArrow=none;html=1;rounded=0;" edge="1" parent="1">
          <mxGeometry width="50" height="50" relative="1" as="geometry">
            <mxPoint x="1650" y="180" as="sourcePoint" />
            <mxPoint x="1700" y="130" as="targetPoint" />
          </mxGeometry>
        </mxCell>
        <mxCell id="JWIrp3TfvC-NvSnAgTIm-183" value="" style="endArrow=none;html=1;rounded=0;entryX=0;entryY=0.5;entryDx=0;entryDy=0;" edge="1" parent="1" target="JWIrp3TfvC-NvSnAgTIm-181">
          <mxGeometry width="50" height="50" relative="1" as="geometry">
            <mxPoint x="1740" y="120" as="sourcePoint" />
            <mxPoint x="1790" y="70" as="targetPoint" />
          </mxGeometry>
        </mxCell>
        <mxCell id="JWIrp3TfvC-NvSnAgTIm-184" value="" style="endArrow=none;html=1;rounded=0;" edge="1" parent="1" source="JWIrp3TfvC-NvSnAgTIm-178">
          <mxGeometry width="50" height="50" relative="1" as="geometry">
            <mxPoint x="1680" y="180" as="sourcePoint" />
            <mxPoint x="1730" y="130" as="targetPoint" />
          </mxGeometry>
        </mxCell>
        <mxCell id="JWIrp3TfvC-NvSnAgTIm-185" value="TRANSACTION_ID" style="ellipse;whiteSpace=wrap;html=1;fontSize=19;fontStyle=0" vertex="1" parent="1">
          <mxGeometry x="1770" y="520" width="190" height="50" as="geometry" />
        </mxCell>
        <mxCell id="JWIrp3TfvC-NvSnAgTIm-186" value="" style="endArrow=none;html=1;rounded=0;exitX=0.105;exitY=0.791;exitDx=0;exitDy=0;exitPerimeter=0;entryX=0.904;entryY=0.773;entryDx=0;entryDy=0;entryPerimeter=0;" edge="1" parent="1" source="JWIrp3TfvC-NvSnAgTIm-185" target="JWIrp3TfvC-NvSnAgTIm-185">
          <mxGeometry width="50" height="50" relative="1" as="geometry">
            <mxPoint x="1787.9302953012511" y="562.5684388443365" as="sourcePoint" />
            <mxPoint x="1862.06" y="560" as="targetPoint" />
          </mxGeometry>
        </mxCell>
        <mxCell id="JWIrp3TfvC-NvSnAgTIm-187" value="CARD # (FK)" style="ellipse;whiteSpace=wrap;html=1;fontSize=19;fontStyle=0" vertex="1" parent="1">
          <mxGeometry x="1660" y="560" width="130" height="50" as="geometry" />
        </mxCell>
        <mxCell id="JWIrp3TfvC-NvSnAgTIm-188" value="ACCOUNT # (FK)" style="ellipse;whiteSpace=wrap;html=1;fontSize=19;fontStyle=0" vertex="1" parent="1">
          <mxGeometry x="1490" y="510" width="190" height="50" as="geometry" />
        </mxCell>
        <mxCell id="JWIrp3TfvC-NvSnAgTIm-189" value="TRANSACTION_DATE_TIME" style="ellipse;whiteSpace=wrap;html=1;fontSize=19;fontStyle=0" vertex="1" parent="1">
          <mxGeometry x="1840" y="450" width="320" height="50" as="geometry" />
        </mxCell>
        <mxCell id="JWIrp3TfvC-NvSnAgTIm-190" value="TRANSACTION_TYPE" style="ellipse;whiteSpace=wrap;html=1;fontSize=19;fontStyle=0" vertex="1" parent="1">
          <mxGeometry x="1710" y="390" width="220" height="50" as="geometry" />
        </mxCell>
        <mxCell id="JWIrp3TfvC-NvSnAgTIm-191" value="DEPOSIT" style="ellipse;whiteSpace=wrap;html=1;fontSize=19;fontStyle=0" vertex="1" parent="1">
          <mxGeometry x="1835" y="320" width="115" height="50" as="geometry" />
        </mxCell>
        <mxCell id="JWIrp3TfvC-NvSnAgTIm-192" value="WITHDRAWL" style="ellipse;whiteSpace=wrap;html=1;fontSize=19;fontStyle=0" vertex="1" parent="1">
          <mxGeometry x="1680" y="320" width="130" height="50" as="geometry" />
        </mxCell>
        <mxCell id="JWIrp3TfvC-NvSnAgTIm-193" value="TRANSAFER" style="ellipse;whiteSpace=wrap;html=1;fontSize=19;fontStyle=0" vertex="1" parent="1">
          <mxGeometry x="1942.5" y="360" width="137.5" height="50" as="geometry" />
        </mxCell>
        <mxCell id="JWIrp3TfvC-NvSnAgTIm-195" value="AMOUNT" style="ellipse;whiteSpace=wrap;html=1;fontSize=19;fontStyle=0" vertex="1" parent="1">
          <mxGeometry x="1480" y="440" width="130" height="50" as="geometry" />
        </mxCell>
        <mxCell id="JWIrp3TfvC-NvSnAgTIm-196" value="" style="endArrow=none;html=1;rounded=0;entryX=0.25;entryY=1;entryDx=0;entryDy=0;" edge="1" parent="1" target="JWIrp3TfvC-NvSnAgTIm-9">
          <mxGeometry width="50" height="50" relative="1" as="geometry">
            <mxPoint x="1660" y="520" as="sourcePoint" />
            <mxPoint x="1710" y="470" as="targetPoint" />
          </mxGeometry>
        </mxCell>
        <mxCell id="JWIrp3TfvC-NvSnAgTIm-197" value="" style="endArrow=none;html=1;rounded=0;entryX=0.525;entryY=0.967;entryDx=0;entryDy=0;entryPerimeter=0;exitX=0.35;exitY=0.036;exitDx=0;exitDy=0;exitPerimeter=0;" edge="1" parent="1" source="JWIrp3TfvC-NvSnAgTIm-187" target="JWIrp3TfvC-NvSnAgTIm-9">
          <mxGeometry width="50" height="50" relative="1" as="geometry">
            <mxPoint x="1700" y="560" as="sourcePoint" />
            <mxPoint x="1750" y="510" as="targetPoint" />
          </mxGeometry>
        </mxCell>
        <mxCell id="JWIrp3TfvC-NvSnAgTIm-198" value="" style="endArrow=none;html=1;rounded=0;exitX=0.126;exitY=0.158;exitDx=0;exitDy=0;exitPerimeter=0;" edge="1" parent="1" source="JWIrp3TfvC-NvSnAgTIm-190">
          <mxGeometry width="50" height="50" relative="1" as="geometry">
            <mxPoint x="1690" y="420" as="sourcePoint" />
            <mxPoint x="1740" y="370" as="targetPoint" />
          </mxGeometry>
        </mxCell>
        <mxCell id="JWIrp3TfvC-NvSnAgTIm-199" value="" style="endArrow=none;html=1;rounded=0;exitX=0.654;exitY=0.013;exitDx=0;exitDy=0;exitPerimeter=0;" edge="1" parent="1" source="JWIrp3TfvC-NvSnAgTIm-190">
          <mxGeometry width="50" height="50" relative="1" as="geometry">
            <mxPoint x="1830" y="420" as="sourcePoint" />
            <mxPoint x="1880" y="370" as="targetPoint" />
          </mxGeometry>
        </mxCell>
        <mxCell id="JWIrp3TfvC-NvSnAgTIm-200" value="" style="endArrow=none;html=1;rounded=0;exitX=0.935;exitY=0.257;exitDx=0;exitDy=0;exitPerimeter=0;entryX=0.021;entryY=0.627;entryDx=0;entryDy=0;entryPerimeter=0;" edge="1" parent="1" source="JWIrp3TfvC-NvSnAgTIm-190" target="JWIrp3TfvC-NvSnAgTIm-193">
          <mxGeometry width="50" height="50" relative="1" as="geometry">
            <mxPoint x="1892.5" y="440" as="sourcePoint" />
            <mxPoint x="1940" y="390" as="targetPoint" />
          </mxGeometry>
        </mxCell>
        <mxCell id="JWIrp3TfvC-NvSnAgTIm-201" value="" style="endArrow=none;html=1;rounded=0;entryX=0.909;entryY=1.011;entryDx=0;entryDy=0;entryPerimeter=0;exitX=0;exitY=0;exitDx=0;exitDy=0;" edge="1" parent="1" source="JWIrp3TfvC-NvSnAgTIm-185" target="JWIrp3TfvC-NvSnAgTIm-9">
          <mxGeometry width="50" height="50" relative="1" as="geometry">
            <mxPoint x="1795" y="530" as="sourcePoint" />
            <mxPoint x="1845" y="480" as="targetPoint" />
          </mxGeometry>
        </mxCell>
        <mxCell id="JWIrp3TfvC-NvSnAgTIm-202" value="" style="endArrow=none;html=1;rounded=0;entryX=0;entryY=0.5;entryDx=0;entryDy=0;" edge="1" parent="1" target="JWIrp3TfvC-NvSnAgTIm-9">
          <mxGeometry width="50" height="50" relative="1" as="geometry">
            <mxPoint x="1610" y="470" as="sourcePoint" />
            <mxPoint x="1660" y="420" as="targetPoint" />
          </mxGeometry>
        </mxCell>
        <mxCell id="JWIrp3TfvC-NvSnAgTIm-203" value="" style="endArrow=none;html=1;rounded=0;entryX=0;entryY=0.5;entryDx=0;entryDy=0;exitX=1;exitY=0.5;exitDx=0;exitDy=0;" edge="1" parent="1" source="JWIrp3TfvC-NvSnAgTIm-9" target="JWIrp3TfvC-NvSnAgTIm-189">
          <mxGeometry width="50" height="50" relative="1" as="geometry">
            <mxPoint x="1780" y="520" as="sourcePoint" />
            <mxPoint x="1830" y="470" as="targetPoint" />
          </mxGeometry>
        </mxCell>
        <mxCell id="JWIrp3TfvC-NvSnAgTIm-204" value="SERVICE BY" style="rhombus;whiteSpace=wrap;html=1;fontStyle=1;fontSize=17;" vertex="1" parent="1">
          <mxGeometry x="370" y="300" width="120" height="90" as="geometry" />
        </mxCell>
        <mxCell id="JWIrp3TfvC-NvSnAgTIm-205" value="M" style="endArrow=none;html=1;rounded=0;shape=link;exitX=1;exitY=0.5;exitDx=0;exitDy=0;" edge="1" parent="1" source="JWIrp3TfvC-NvSnAgTIm-4">
          <mxGeometry width="50" height="50" relative="1" as="geometry">
            <mxPoint x="380" y="440" as="sourcePoint" />
            <mxPoint x="430" y="390" as="targetPoint" />
            <Array as="points">
              <mxPoint x="300" y="405" />
              <mxPoint x="300" y="440" />
              <mxPoint x="430" y="440" />
            </Array>
          </mxGeometry>
        </mxCell>
        <mxCell id="JWIrp3TfvC-NvSnAgTIm-206" value="1" style="endArrow=none;html=1;rounded=0;entryX=1;entryY=0.5;entryDx=0;entryDy=0;" edge="1" parent="1">
          <mxGeometry width="50" height="50" relative="1" as="geometry">
            <mxPoint x="430" y="300" as="sourcePoint" />
            <mxPoint x="130" y="-5" as="targetPoint" />
            <Array as="points">
              <mxPoint x="430" y="-5" />
            </Array>
          </mxGeometry>
        </mxCell>
        <mxCell id="JWIrp3TfvC-NvSnAgTIm-207" value="PERFORMS" style="rhombus;whiteSpace=wrap;html=1;fontSize=15;fontStyle=1" vertex="1" parent="1">
          <mxGeometry x="-840" y="545" width="130" height="80" as="geometry" />
        </mxCell>
        <mxCell id="JWIrp3TfvC-NvSnAgTIm-208" value="1" style="endArrow=none;html=1;rounded=0;entryX=0.623;entryY=0.955;entryDx=0;entryDy=0;entryPerimeter=0;exitX=0.5;exitY=0;exitDx=0;exitDy=0;" edge="1" parent="1" source="JWIrp3TfvC-NvSnAgTIm-207" target="JWIrp3TfvC-NvSnAgTIm-7">
          <mxGeometry width="50" height="50" relative="1" as="geometry">
            <mxPoint x="-780" y="530" as="sourcePoint" />
            <mxPoint x="-730" y="480" as="targetPoint" />
          </mxGeometry>
        </mxCell>
        <mxCell id="JWIrp3TfvC-NvSnAgTIm-209" value="M" style="endArrow=none;html=1;rounded=0;shape=link;exitX=0.85;exitY=1;exitDx=0;exitDy=0;exitPerimeter=0;" edge="1" parent="1" source="JWIrp3TfvC-NvSnAgTIm-4">
          <mxGeometry width="50" height="50" relative="1" as="geometry">
            <mxPoint x="-825" y="675" as="sourcePoint" />
            <mxPoint x="-775" y="625" as="targetPoint" />
            <Array as="points">
              <mxPoint x="190" y="460" />
              <mxPoint x="430" y="460" />
              <mxPoint x="440" y="680" />
              <mxPoint x="-775" y="690" />
            </Array>
          </mxGeometry>
        </mxCell>
        <mxCell id="JWIrp3TfvC-NvSnAgTIm-210" value="OPERATED BY" style="rhombus;whiteSpace=wrap;html=1;fontSize=16;fontStyle=1" vertex="1" parent="1">
          <mxGeometry x="-630" y="-245" width="140" height="80" as="geometry" />
        </mxCell>
        <mxCell id="JWIrp3TfvC-NvSnAgTIm-211" value="M" style="endArrow=none;html=1;rounded=0;shape=link;" edge="1" parent="1">
          <mxGeometry width="50" height="50" relative="1" as="geometry">
            <mxPoint x="-560" y="-245" as="sourcePoint" />
            <mxPoint x="-560" y="-300" as="targetPoint" />
          </mxGeometry>
        </mxCell>
        <mxCell id="JWIrp3TfvC-NvSnAgTIm-213" value="1" style="endArrow=none;html=1;rounded=0;exitX=0.449;exitY=1.007;exitDx=0;exitDy=0;exitPerimeter=0;" edge="1" parent="1" source="JWIrp3TfvC-NvSnAgTIm-1">
          <mxGeometry width="50" height="50" relative="1" as="geometry">
            <mxPoint x="-610" y="-115" as="sourcePoint" />
            <mxPoint x="-560" y="-165" as="targetPoint" />
            <Array as="points">
              <mxPoint x="20" y="100" />
              <mxPoint x="-320" y="100" />
              <mxPoint x="-320" y="-120" />
              <mxPoint x="-560" y="-120" />
            </Array>
          </mxGeometry>
        </mxCell>
        <mxCell id="JWIrp3TfvC-NvSnAgTIm-214" value="BELONGS TO" style="rhombus;whiteSpace=wrap;html=1;fontStyle=1;fontSize=15;" vertex="1" parent="1">
          <mxGeometry x="350" y="-270" width="120" height="100" as="geometry" />
        </mxCell>
        <mxCell id="JWIrp3TfvC-NvSnAgTIm-215" value="1" style="endArrow=none;html=1;rounded=0;entryX=0.15;entryY=1;entryDx=0;entryDy=0;entryPerimeter=0;" edge="1" parent="1" target="JWIrp3TfvC-NvSnAgTIm-6">
          <mxGeometry width="50" height="50" relative="1" as="geometry">
            <mxPoint x="410" y="-270" as="sourcePoint" />
            <mxPoint x="460" y="-320" as="targetPoint" />
            <Array as="points">
              <mxPoint x="410" y="-320" />
              <mxPoint x="460" y="-320" />
            </Array>
          </mxGeometry>
        </mxCell>
        <mxCell id="JWIrp3TfvC-NvSnAgTIm-216" value="M" style="endArrow=none;html=1;rounded=0;shape=link;exitX=1;exitY=0.25;exitDx=0;exitDy=0;" edge="1" parent="1" source="JWIrp3TfvC-NvSnAgTIm-1">
          <mxGeometry width="50" height="50" relative="1" as="geometry">
            <mxPoint x="410" y="-70" as="sourcePoint" />
            <mxPoint x="410" y="-170" as="targetPoint" />
            <Array as="points">
              <mxPoint x="410" y="-22" />
            </Array>
          </mxGeometry>
        </mxCell>
        <mxCell id="JWIrp3TfvC-NvSnAgTIm-218" value="OWNS" style="rhombus;whiteSpace=wrap;html=1;fontSize=15;fontStyle=1" vertex="1" parent="1">
          <mxGeometry x="1360" y="-30" width="80" height="80" as="geometry" />
        </mxCell>
        <mxCell id="JWIrp3TfvC-NvSnAgTIm-219" value="M" style="endArrow=none;html=1;rounded=0;shape=link;" edge="1" parent="1">
          <mxGeometry width="50" height="50" relative="1" as="geometry">
            <mxPoint x="1400" y="170" as="sourcePoint" />
            <mxPoint x="1400" y="50" as="targetPoint" />
            <Array as="points">
              <mxPoint x="1400" y="85" />
            </Array>
          </mxGeometry>
        </mxCell>
        <mxCell id="JWIrp3TfvC-NvSnAgTIm-220" value="1" style="endArrow=none;html=1;rounded=0;entryX=0.25;entryY=1;entryDx=0;entryDy=0;" edge="1" parent="1" target="JWIrp3TfvC-NvSnAgTIm-5">
          <mxGeometry width="50" height="50" relative="1" as="geometry">
            <mxPoint x="1400" y="-30" as="sourcePoint" />
            <mxPoint x="1450" y="-80" as="targetPoint" />
            <Array as="points">
              <mxPoint x="1400" y="-50" />
              <mxPoint x="1450" y="-50" />
            </Array>
          </mxGeometry>
        </mxCell>
        <mxCell id="JWIrp3TfvC-NvSnAgTIm-221" value="HOLDS" style="rhombus;whiteSpace=wrap;html=1;fontStyle=1;fontSize=16;" vertex="1" parent="1">
          <mxGeometry x="1470" y="20" width="80" height="80" as="geometry" />
        </mxCell>
        <mxCell id="JWIrp3TfvC-NvSnAgTIm-222" value="M" style="endArrow=none;html=1;rounded=0;shape=link;entryX=0.5;entryY=1;entryDx=0;entryDy=0;entryPerimeter=0;" edge="1" parent="1" target="JWIrp3TfvC-NvSnAgTIm-221">
          <mxGeometry width="50" height="50" relative="1" as="geometry">
            <mxPoint x="1630" y="120" as="sourcePoint" />
            <mxPoint x="1505" y="100" as="targetPoint" />
            <Array as="points">
              <mxPoint x="1510" y="120" />
            </Array>
          </mxGeometry>
        </mxCell>
        <mxCell id="JWIrp3TfvC-NvSnAgTIm-223" value="1" style="endArrow=none;html=1;rounded=0;entryX=0.545;entryY=0.993;entryDx=0;entryDy=0;entryPerimeter=0;" edge="1" parent="1" target="JWIrp3TfvC-NvSnAgTIm-5">
          <mxGeometry width="50" height="50" relative="1" as="geometry">
            <mxPoint x="1510" y="20" as="sourcePoint" />
            <mxPoint x="1510" y="-90" as="targetPoint" />
          </mxGeometry>
        </mxCell>
        <mxCell id="JWIrp3TfvC-NvSnAgTIm-224" value="" style="endArrow=none;html=1;rounded=0;exitX=0.628;exitY=0.001;exitDx=0;exitDy=0;exitPerimeter=0;" edge="1" parent="1" source="JWIrp3TfvC-NvSnAgTIm-9">
          <mxGeometry width="50" height="50" relative="1" as="geometry">
            <mxPoint x="1732" y="458" as="sourcePoint" />
            <mxPoint x="1790" y="440" as="targetPoint" />
          </mxGeometry>
        </mxCell>
        <mxCell id="JWIrp3TfvC-NvSnAgTIm-225" value="USED FOR" style="rhombus;whiteSpace=wrap;html=1;fontSize=15;fontStyle=1" vertex="1" parent="1">
          <mxGeometry x="1540" y="305" width="100" height="80" as="geometry" />
        </mxCell>
        <mxCell id="JWIrp3TfvC-NvSnAgTIm-226" value="M" style="endArrow=none;html=1;rounded=0;exitX=0.267;exitY=0;exitDx=0;exitDy=0;shape=link;entryX=0.5;entryY=1;entryDx=0;entryDy=0;exitPerimeter=0;" edge="1" parent="1" source="JWIrp3TfvC-NvSnAgTIm-9" target="JWIrp3TfvC-NvSnAgTIm-225">
          <mxGeometry width="50" height="50" relative="1" as="geometry">
            <mxPoint x="1550" y="435" as="sourcePoint" />
            <mxPoint x="1600" y="385" as="targetPoint" />
            <Array as="points">
              <mxPoint x="1678" y="410" />
              <mxPoint x="1590" y="410" />
            </Array>
          </mxGeometry>
        </mxCell>
        <mxCell id="JWIrp3TfvC-NvSnAgTIm-227" value="1" style="endArrow=none;html=1;rounded=0;exitX=0.5;exitY=0;exitDx=0;exitDy=0;entryX=0.132;entryY=1.017;entryDx=0;entryDy=0;entryPerimeter=0;" edge="1" parent="1" source="JWIrp3TfvC-NvSnAgTIm-225" target="JWIrp3TfvC-NvSnAgTIm-8">
          <mxGeometry width="50" height="50" relative="1" as="geometry">
            <mxPoint x="1580" y="290" as="sourcePoint" />
            <mxPoint x="1630" y="240" as="targetPoint" />
            <Array as="points">
              <mxPoint x="1590" y="270" />
              <mxPoint x="1500" y="270" />
              <mxPoint x="1500" y="160" />
              <mxPoint x="1645" y="160" />
            </Array>
          </mxGeometry>
        </mxCell>
        <mxCell id="JWIrp3TfvC-NvSnAgTIm-228" value="HAS" style="rhombus;whiteSpace=wrap;html=1;fontSize=15;fontStyle=1" vertex="1" parent="1">
          <mxGeometry x="1390" y="320" width="80" height="80" as="geometry" />
        </mxCell>
        <mxCell id="JWIrp3TfvC-NvSnAgTIm-229" value="M" style="endArrow=none;html=1;rounded=0;shape=link;exitX=0.173;exitY=0.048;exitDx=0;exitDy=0;exitPerimeter=0;" edge="1" parent="1" source="JWIrp3TfvC-NvSnAgTIm-9">
          <mxGeometry width="50" height="50" relative="1" as="geometry">
            <mxPoint x="1380" y="450" as="sourcePoint" />
            <mxPoint x="1430" y="400" as="targetPoint" />
            <Array as="points">
              <mxPoint x="1666" y="430" />
              <mxPoint x="1540" y="430" />
              <mxPoint x="1430" y="430" />
            </Array>
          </mxGeometry>
        </mxCell>
        <mxCell id="JWIrp3TfvC-NvSnAgTIm-232" value="1" style="endArrow=none;html=1;rounded=0;" edge="1" parent="1">
          <mxGeometry width="50" height="50" relative="1" as="geometry">
            <mxPoint x="1430" y="320" as="sourcePoint" />
            <mxPoint x="1430" y="200" as="targetPoint" />
          </mxGeometry>
        </mxCell>
        <mxCell id="JWIrp3TfvC-NvSnAgTIm-234" value="ATM_STAFF (SUPPER CLASS) (OVERLAP)&amp;nbsp;" style="rounded=0;whiteSpace=wrap;html=1;fontStyle=1;fontSize=19;" vertex="1" parent="1">
          <mxGeometry x="-1360" y="-50" width="310" height="60" as="geometry" />
        </mxCell>
        <mxCell id="JWIrp3TfvC-NvSnAgTIm-235" value="" style="endArrow=none;html=1;rounded=0;entryX=0;entryY=0.5;entryDx=0;entryDy=0;" edge="1" parent="1" target="JWIrp3TfvC-NvSnAgTIm-3">
          <mxGeometry width="50" height="50" relative="1" as="geometry">
            <mxPoint x="-1180" y="-52.5" as="sourcePoint" />
            <mxPoint x="-1130" y="-102.5" as="targetPoint" />
            <Array as="points">
              <mxPoint x="-1180" y="-315" />
            </Array>
          </mxGeometry>
        </mxCell>
        <mxCell id="JWIrp3TfvC-NvSnAgTIm-237" value="" style="endArrow=none;html=1;rounded=0;exitX=0;exitY=0.5;exitDx=0;exitDy=0;" edge="1" parent="1" source="JWIrp3TfvC-NvSnAgTIm-7">
          <mxGeometry width="50" height="50" relative="1" as="geometry">
            <mxPoint x="-1180" y="450" as="sourcePoint" />
            <mxPoint x="-1180" y="10" as="targetPoint" />
            <Array as="points">
              <mxPoint x="-1180" y="465" />
            </Array>
          </mxGeometry>
        </mxCell>
      </root>
    </mxGraphModel>
  </diagram>
</mxfile>
